<svg width="477" height="512" viewBox="0 0 477 512" fill="none" xmlns="http://www.w3.org/2000/svg">
<g clip-path="url(#clip0_22_2)">
<path d="M302.55 52.8H325.82C325.8 23.63 302.19 0.02 273.02 0H238.98C209.81 0.02 186.2 23.63 186.18 52.8L184.63 57.05C183.49 58.61 181.5 60.19 179.16 61.1L178.97 61.17L172.88 63.69L172.69 63.77L172.51 63.85L167.32 64.96C164.53 64.91 162.86 64.11 161.68 62.95C151.43 52.68 137.78 47.46 124.34 47.48C110.9 47.45 97.25 52.68 87 62.95L62.95 87.01C52.68 97.26 47.46 110.91 47.48 124.35C47.45 137.79 52.68 151.44 62.95 161.69C64.12 162.87 64.92 164.54 64.96 167.33L63.85 172.52L63.77 172.7L61.25 178.78L61.17 178.97L61.1 179.16C60.19 181.5 58.6 183.49 57.05 184.63L52.8 186.18C23.63 186.2 0.02 209.81 0 238.98V273.02C0.02 302.19 23.63 325.8 52.8 325.82L57.05 327.37C58.61 328.51 60.19 330.5 61.1 332.84L61.17 333.03L63.69 339.11L63.77 339.3L63.85 339.48L64.96 344.67C64.91 347.46 64.11 349.13 62.95 350.31C52.68 360.56 47.46 374.21 47.48 387.65C47.45 401.09 52.68 414.74 62.95 424.99L87.13 449.17L87.01 449.05C97.26 459.32 110.91 464.54 124.35 464.52C137.79 464.55 151.44 459.32 161.69 449.05C162.87 447.88 164.54 447.08 167.33 447.04L172.52 448.15L172.7 448.23L178.78 450.75L178.96 450.83L179.15 450.9C181.49 451.81 183.48 453.4 184.62 454.96L186.17 459.21C186.19 488.38 209.8 511.99 238.97 512.01H273.01C302.18 511.99 325.79 488.38 325.81 459.21L327.36 454.96C328.5 453.4 330.49 451.81 332.83 450.91L333.01 450.84L339.09 448.32L339.28 448.24L339.47 448.16L344.66 447.05C347.45 447.1 349.11 447.9 350.29 449.06C360.54 459.33 374.19 464.55 387.63 464.53C401.07 464.56 414.72 459.33 424.97 449.07L449.04 425C459.31 414.75 464.53 401.1 464.51 387.66C464.54 374.22 459.31 360.57 449.04 350.32C447.87 349.14 447.07 347.47 447.03 344.68L448.14 339.49L448.22 339.31L450.74 333.22L450.82 333.04L450.89 332.85C451.8 330.51 453.39 328.52 454.95 327.38L459.2 325.83C488.37 325.81 511.98 302.2 512 273.03V238.99C511.98 209.82 488.37 186.21 459.2 186.19L454.95 184.64C453.39 183.5 451.8 181.51 450.89 179.17L450.82 178.98L448.3 172.9L448.22 172.72L448.14 172.53L447.03 167.34C447.08 164.55 447.88 162.89 449.04 161.7C459.31 151.45 464.53 137.8 464.51 124.36C464.54 110.92 459.31 97.27 449.04 87.02L424.97 62.95C414.72 52.68 401.07 47.46 387.63 47.49C374.19 47.46 360.54 52.69 350.29 62.96C349.11 64.12 347.45 64.93 344.65 64.97L339.46 63.86L339.27 63.78L333.19 61.26L333.01 61.18L332.82 61.11C330.48 60.2 328.49 58.61 327.35 57.06L325.8 52.81H302.55H279.28C279.26 64.91 283.5 76.14 290.08 84.91C296.68 93.73 305.57 100.38 315.76 104.41L324.3 82.76L315.39 104.26L321.29 106.71L330.2 85.21L320.92 106.55C328.46 109.82 336.52 111.52 344.68 111.53C358.21 111.58 372.5 106.64 383.23 95.88L387.65 94.05L392.07 95.88L416.14 119.95L417.97 124.37L416.14 128.79C405.39 139.52 400.44 153.81 400.49 167.34C400.49 175.5 402.19 183.56 405.47 191.1L426.81 181.82L405.31 190.73L407.76 196.63L429.26 187.72L407.61 196.26C411.65 206.45 418.3 215.34 427.11 221.94C435.88 228.53 447.1 232.76 459.21 232.74C462.65 232.75 465.45 235.55 465.46 238.99V273.03C465.45 276.47 462.65 279.27 459.21 279.28C447.11 279.26 435.88 283.5 427.11 290.08C418.3 296.68 411.65 305.57 407.61 315.76L429.26 324.3L407.76 315.39L405.31 321.29L426.81 330.2L405.47 320.92C402.19 328.46 400.5 336.52 400.49 344.68C400.44 358.21 405.38 372.5 416.14 383.23L417.97 387.65L416.14 392.07L392.07 416.14L387.65 417.97L383.23 416.14C372.5 405.39 358.21 400.44 344.68 400.49C336.52 400.49 328.46 402.19 320.92 405.47L330.2 426.81L321.29 405.31L315.39 407.75L324.3 429.25L315.76 407.6C305.57 411.64 296.68 418.29 290.08 427.1C283.49 435.87 279.26 447.1 279.28 459.2C279.27 462.64 276.47 465.44 273.03 465.45H238.99C235.55 465.44 232.75 462.64 232.74 459.2C232.76 447.1 228.52 435.87 221.94 427.1C215.34 418.29 206.45 411.64 196.26 407.6L187.72 429.25L196.63 407.75L190.73 405.3L181.82 426.8L191.1 405.46C183.56 402.18 175.5 400.49 167.34 400.48C153.81 400.43 139.52 405.37 128.79 416.12L124.37 417.95L119.95 416.12L95.89 392.06L94.06 387.64L95.89 383.22C106.64 372.48 111.58 358.2 111.54 344.67C111.54 336.51 109.84 328.45 106.56 320.91L85.22 330.19L106.72 321.28L104.28 315.39L82.78 324.3L104.43 315.76C100.4 305.57 93.74 296.68 84.93 290.08C76.16 283.49 64.93 279.26 52.83 279.28C49.39 279.27 46.59 276.47 46.58 273.03V238.99C46.59 235.55 49.39 232.75 52.83 232.74C64.93 232.76 76.16 228.52 84.93 221.94C93.75 215.34 100.39 206.45 104.43 196.26L82.78 187.72L104.28 196.63L106.72 190.73L85.22 181.82L106.56 191.1C109.83 183.56 111.53 175.5 111.54 167.34C111.59 153.81 106.65 139.52 95.89 128.79L94.06 124.36L95.89 119.93L119.95 95.87L124.38 94.04L128.8 95.87C139.54 106.62 153.82 111.56 167.35 111.52C175.51 111.52 183.57 109.82 191.11 106.54L181.83 85.2L190.74 106.7L196.64 104.25L187.73 82.75L196.27 104.4C206.46 100.37 215.35 93.72 221.95 84.9C228.54 76.13 232.77 64.9 232.75 52.8C232.76 49.36 235.56 46.56 239 46.55H273.04C276.48 46.56 279.28 49.36 279.29 52.8H302.55Z" fill="white"/>
<path d="M349.09 256H325.82C325.75 294.55 294.55 325.75 256 325.82C217.45 325.75 186.25 294.55 186.18 256C186.25 217.45 217.45 186.25 256 186.18C294.55 186.25 325.75 217.45 325.82 256H349.09H372.36C372.34 191.72 320.27 139.65 256 139.64C191.73 139.66 139.65 191.73 139.64 256C139.66 320.27 191.73 372.35 256 372.36C320.27 372.34 372.35 320.27 372.36 256H349.09Z" fill="white"/>
</g>
<defs>
<clipPath id="clip0_22_2">
<rect width="512" height="512" fill="white"/>
</clipPath>
</defs>
</svg>
