<svg width="23" height="23" viewBox="0 0 23 23" fill="none" xmlns="http://www.w3.org/2000/svg">
<g clip-path="url(#clip0_8_29)">
<path d="M19.6318 3.36824C17.4597 1.19624 14.5718 0 11.5 0C8.42824 0 5.54034 1.19624 3.36824 3.36824C1.19624 5.54034 0 8.42824 0 11.5C0 14.5718 1.19624 17.4597 3.36824 19.6318C5.54034 21.8038 8.42824 23 11.5 23C14.5718 23 17.4597 21.8038 19.6318 19.6318C21.8038 17.4597 23 14.5718 23 11.5C23 8.42824 21.8038 5.54034 19.6318 3.36824ZM11.5 21.5773C5.94334 21.5773 1.42268 17.0567 1.42268 11.5C1.42268 5.94334 5.94334 1.42268 11.5 1.42268C17.0567 1.42268 21.5773 5.94334 21.5773 11.5C21.5773 17.0567 17.0567 21.5773 11.5 21.5773Z" fill="white"/>
<path d="M15.1048 10.9777C16.02 10.9777 16.7646 10.2331 16.7646 9.31789C16.7646 8.40268 16.02 7.6581 15.1048 7.6581C14.1896 7.6581 13.445 8.40268 13.445 9.31789C13.445 10.2331 14.1896 10.9777 15.1048 10.9777Z" fill="white"/>
<path d="M7.89521 10.9777C8.81042 10.9777 9.555 10.2331 9.555 9.31789C9.555 8.40268 8.81042 7.6581 7.89521 7.6581C6.98 7.6581 6.23541 8.40268 6.23541 9.31789C6.23541 10.2331 6.98004 10.9777 7.89521 10.9777Z" fill="white"/>
<path d="M11.5 16.8351C9.27534 16.8351 7.26277 15.4304 6.49196 13.3399L5.1571 13.832C6.13311 16.4792 8.68213 18.2577 11.5 18.2577C14.3178 18.2577 16.8669 16.4792 17.8429 13.832L16.508 13.3399C15.7372 15.4304 13.7246 16.8351 11.5 16.8351Z" fill="white"/>
</g>
<defs>
<clipPath id="clip0_8_29">
<rect width="23" height="23" fill="white"/>
</clipPath>
</defs>
</svg>
